<?xml version="1.0" encoding="UTF-8" standalone="no"?>
<!-- Created with Inkscape (http://www.inkscape.org/) -->

<svg
   version="1.1"
   id="svg1"
   width="374.55957"
   height="287.27194"
   viewBox="0 0 374.55957 287.27194"
   sodipodi:docname="g55.png"
   xml:space="preserve"
   xmlns:inkscape="http://www.inkscape.org/namespaces/inkscape"
   xmlns:sodipodi="http://sodipodi.sourceforge.net/DTD/sodipodi-0.dtd"
   xmlns="http://www.w3.org/2000/svg"
   xmlns:svg="http://www.w3.org/2000/svg"><defs
     id="defs1" /><sodipodi:namedview
     id="namedview1"
     pagecolor="#ffffff"
     bordercolor="#000000"
     borderopacity="0.25"
     inkscape:showpageshadow="2"
     inkscape:pageopacity="0.0"
     inkscape:pagecheckerboard="0"
     inkscape:deskcolor="#d1d1d1" /><g
     inkscape:groupmode="layer"
     inkscape:label="Image"
     id="g1"
     transform="translate(-785.87415,-283.36752)"><g
       id="g86"><g
         id="g80"
         transform="matrix(1.173818,0,0,1.173818,674.77678,-312.55597)"><path
           style="fill:#0000ff"
           d="m 222.92304,537.67967 v -6 h 22.03183 22.03183 l 1.63483,1.76402 c 1.75033,1.88863 2.12326,4.74435 0.91451,7.00291 -1.572,2.93731 -3.94359,3.23307 -25.92493,3.23307 h -20.68807 z"
           id="path40" /><path
           style="fill:#0000ff"
           d="m 199.36748,626.56856 c -0.24444,-0.24445 -0.44444,-21.69445 -0.44444,-47.66667 v -47.22222 h 6 6 v 41.69633 41.69634 l 25.54991,-0.19634 25.54992,-0.19633 2.84233,-1.88178 c 5.68493,-3.76374 7.07337,-11.8202 2.92594,-16.9778 -3.55342,-4.4189 -3.73552,-4.45242 -25.36811,-4.66886 l -19.49999,-0.19512 v -6.01497 -6.01498 l 20.49999,0.21906 c 22.60879,0.24159 23.39832,0.37189 29.16667,4.81332 3.83288,2.95118 4.8246,4.19842 7.1995,9.05446 1.87334,3.83048 2.12011,4.99254 2.12655,10.01402 0.007,5.08273 -0.22336,6.14919 -2.18388,10.13157 -3.55347,7.21813 -9.89246,11.89517 -17.8992,13.20642 -4.36553,0.71493 -61.76676,0.90198 -62.46519,0.20355 z"
           id="path41" /><path
           style="fill:#ff0000"
           d="M 198.92304,644.71291 V 639.013 l 28.16666,-0.0275 c 15.49167,-0.0151 29.96667,-0.17624 32.16667,-0.35807 17.96374,-1.48467 30.67037,-12.20698 34.09597,-28.77138 3.58162,-17.31889 -5.98849,-34.11983 -23.09597,-40.54648 l -5,-1.87832 -21.16667,-0.2721 -21.16666,-0.2721 v -5.54975 -5.54975 l 22.49999,-0.2798 c 16.83048,-0.2093 23.17195,-0.5124 25.16667,-1.20288 3.79891,-1.31501 9.17225,-6.87538 10.54914,-10.91632 2.27243,-6.66921 0.71389,-13.47529 -4.22052,-18.43078 -5.32932,-5.3521 -4.7158,-5.27813 -43.78071,-5.27813 h -34.21457 v -6 -6 h 33.96718 c 35.67364,0 38.2329,0.17572 44.36615,3.04616 9.51129,4.45141 17,16.17806 17,26.62051 0,6.9909 -3.68329,15.82614 -8.6813,20.82415 l -3.33842,3.33842 4.36264,3.20293 c 19.16501,14.07044 24.93999,40.57364 13.35488,61.28975 -5.81078,10.39064 -15.7829,18.51315 -27.62042,22.49755 -4.29742,1.4465 -5.29694,1.4902 -38.91071,1.6992 l -34.5,0.2146 z"
           id="path42" /></g><g
         id="g79"
         transform="matrix(0.89567162,0,0,0.90855167,505.04198,-13.524803)"><path
           style="fill:#0000ff;stroke-width:1.42229"
           d="M 692.81995,589.94269 V 568.6084 h 5.06 5.0599 l 8.9259,12.34294 8.9259,12.34294 0.2646,-12.34294 0.2645,-12.34294 h 5.2057 5.2057 l -0.2552,21.09724 -0.2552,21.09726 h -5.1094 -5.1093 l -8.6394,-12.07039 c -4.7517,-6.63871 -8.9595,-12.07895 -9.3506,-12.08944 -0.3911,-0.01 -0.7111,5.52788 -0.7111,12.30743 v 12.32649 h -4.741 -4.741 z"
           id="path43" /><path
           style="fill:#0000ff;stroke-width:1.42229"
           d="m 656.78875,589.99219 v -21.38385 h 4.7409 4.741 v 20.3861 c 0,11.21237 0.1067,20.70613 0.237,21.09726 0.1305,0.39113 -2.003,0.8401 -4.7409,0.99773 l -4.978,0.28661 z"
           id="path44" /><path
           style="fill:#0000ff;stroke-width:1.42229"
           d="M 600.84545,589.94269 V 568.6084 h 15.1711 15.171 v 4.74095 4.74096 h -10.4301 -10.4301 v 3.3006 c 0,3.95104 1.9578,4.75055 9.9998,4.08364 l 5.1713,-0.42883 v 4.06794 4.06793 l -7.3485,0.27694 -7.3485,0.27693 v 3.79275 3.79277 l 10.09,0.26809 10.09,0.26807 0.3474,2.5765 c 0.191,1.41707 0.2077,3.53653 0.037,4.70992 -0.3069,2.11017 -0.4748,2.13343 -15.4153,2.13343 h -15.1052 z"
           id="path45" /><path
           style="fill:#0000ff;stroke-width:1.42229"
           d="m 553.30186,596.81707 c -0.0738,-7.95294 -0.0939,-15.41994 -0.0447,-16.59333 0.0845,-2.01648 -0.27199,-2.13343 -6.50326,-2.13343 h -6.59273 v -4.74096 -4.74095 h 18.06759 18.06759 l -0.289,4.50391 -0.289,4.5039 -6.40031,0.28037 -6.40029,0.28038 v 16.55 16.55003 h -4.74095 -4.74095 z"
           id="path46" /><path
           style="fill:#0000ff;stroke-width:1.42229"
           d="m 485.79831,610.64487 c -0.34766,-0.34768 -0.63212,-9.94811 -0.63212,-21.3343 V 568.6084 h 15.69711 15.69709 l -0.289,4.50391 -0.289,4.5039 -10.24835,0.26969 -10.24834,0.26968 0.29234,3.52309 0.29235,3.52307 h 7.35005 7.35006 l -0.001,4.02981 -10e-4,4.02981 h -7.58554 -7.58552 v 4.26685 4.26686 h 10.43009 10.43011 v 4.74097 4.74095 h -15.01303 c -8.25715,0 -15.29747,-0.28446 -15.64515,-0.63212 z"
           id="path47" /><path
           style="fill:#0000ff;stroke-width:1.42229"
           d="m 433.96388,610.59281 c -3.36499,-1.26443 -6.8247,-4.49144 -8.75535,-8.16647 -1.81872,-3.46196 -2.1212,-5.79499 -2.44837,-18.88397 l -0.37327,-14.934 h 5.2293 5.2293 l 0.32215,14.78206 c 0.30953,14.20338 0.40978,14.85295 2.56061,16.59333 2.4278,1.96448 7.70968,2.38967 10.58295,0.85194 2.74538,-1.46928 3.76084,-6.89833 3.76663,-20.1379 l 0.006,-12.08943 h 4.74096 4.74095 v 14.08137 c 0,7.9884 -0.46611,15.476 -1.07721,17.30448 -1.37791,4.12288 -5.192,8.31137 -9.08538,9.97724 -2.99774,1.28264 -12.64533,1.67093 -15.43856,0.62135 z"
           id="path48" /><path
           style="fill:#0000ff;stroke-width:1.42229"
           d="m 371.38328,589.94266 v -21.33429 h 4.71856 4.71856 l 0.25944,16.35629 0.25944,16.35629 9.24486,0.27139 9.24487,0.27139 v 4.70661 4.70662 h -14.22287 -14.22286 z"
           id="path49" /><path
           style="fill:#0000ff;stroke-width:1.42229"
           d="m 314.25478,610.75629 c -0.39113,-0.40897 -0.71114,-10.09347 -0.71114,-21.5211 v -20.77753 l 12.08943,0.31241 c 10.29332,0.26598 12.47095,0.59413 14.65739,2.20878 4.79538,3.54128 5.8644,10.21096 2.30066,14.35406 l -2.24281,2.60743 3.19099,3.0095 c 2.73685,2.58118 3.19102,3.63935 3.19102,7.43482 0,5.14873 -1.92118,8.57333 -5.98995,10.67737 -3.12657,1.61682 -25.20873,3.02939 -26.48559,1.69426 z"
           id="path50" /><path
           style="fill:#ff0000;stroke-width:1.42229"
           d="m 581.05985,636.75167 c -2.2095,-5.31676 -2.4344,-6.5109 -1.2263,-6.5109 0.438,0 1.3597,1.70675 2.0481,3.79277 0.6885,2.08603 1.5418,3.79277 1.8964,3.79277 0.3546,0 1.2079,-1.70674 1.8964,-3.79277 0.6884,-2.08602 1.7915,-3.79277 2.4512,-3.79277 0.8278,0 0.4388,1.76311 -1.2552,5.68915 -1.3501,3.12903 -2.7546,5.68909 -3.1212,5.68909 -0.3666,0 -1.5768,-2.19027 -2.6894,-4.86734 z"
           id="path51" /><path
           style="fill:#ff0000;stroke-width:1.42229"
           d="m 713.68015,636.52808 c 0,-6.24184 0.019,-6.28731 2.6336,-6.28731 4.1121,0 6.8484,2.43766 6.8484,6.10092 0,3.73637 -1.4764,5.17462 -6.0787,5.92142 l -3.4033,0.5523 z"
           id="path52" /><path
           style="fill:#ff0000;stroke-width:1.42229"
           d="m 697.44865,638.53745 c -0.062,-2.2164 -0.05,-4.38657 0.027,-4.82261 0.077,-0.43603 -0.7261,-1.01916 -1.7841,-1.29582 -3.4217,-0.8948 -2.0411,-2.17825 2.3432,-2.17825 2.3468,0 4.2669,0.42669 4.2669,0.9482 0,0.52151 -0.64,0.94819 -1.4223,0.94819 -1.0919,0 -1.4223,1.21158 -1.4223,5.21505 0,6.0758 -1.8421,7.1627 -2.0086,1.18524 z"
           id="path53" /><path
           style="fill:#ff0000;stroke-width:1.42229"
           d="m 679.22925,641.93511 c -1.0161,-1.0161 -0.7275,-11.69434 0.3161,-11.69434 0.768,0 1.5146,6.84247 1.0605,9.71897 -0.062,0.39117 1.3811,0.71117 3.2063,0.71117 1.8253,0 3.3187,0.4267 3.3187,0.9481 0,1.0473 -6.8947,1.323 -7.9016,0.3161 z"
           id="path54" /><path
           style="fill:#ff0000;stroke-width:1.42229"
           d="m 649.71525,641.68051 c -0.3014,-0.4878 0.8468,-1.0211 2.5516,-1.1853 3.6898,-0.35525 4.0488,-2.25853 0.7375,-3.90939 -2.7022,-1.34723 -3.6495,-4.30893 -1.761,-5.50576 1.7669,-1.11973 5.5454,-1.04552 5.5454,0.10895 0,0.52151 -1.0667,0.9482 -2.3705,0.9482 -3.2065,0 -2.9882,1.52823 0.4741,3.31866 4.611,2.38441 3.2616,7.11144 -2.03,7.11144 -1.4295,0 -2.8457,-0.3991 -3.1471,-0.8868 z"
           id="path55" /><path
           style="fill:#ff0000;stroke-width:1.42229"
           d="m 631.18755,636.40402 v -6.16325 h 4.2669 c 2.3468,0 4.2669,0.42669 4.2669,0.9482 0,0.52151 -1.4934,0.94819 -3.3187,0.94819 -2.3178,0 -3.3187,0.42894 -3.3187,1.42229 0,0.94818 0.9482,1.42229 2.8446,1.42229 3.5617,0 3.7588,1.66488 0.2451,2.07045 -1.5677,0.18094 -2.7243,0.95856 -2.9141,1.95935 -0.2521,1.32947 0.359,1.65937 3.0736,1.65937 1.8635,0 3.3882,0.4267 3.3882,0.9481 0,0.5216 -1.9201,0.9482 -4.2669,0.9482 h -4.2669 z"
           id="path56" /><path
           style="fill:#ff0000;stroke-width:1.42229"
           d="m 612.88645,640.87931 c -2.1192,-2.3417 -2.0546,-7.09848 0.1232,-9.06929 1.8855,-1.70634 6.7997,-2.15517 6.7997,-0.62105 0,0.52151 -0.9814,0.94819 -2.1808,0.94819 -2.7683,0 -4.4565,1.67556 -4.4565,4.42313 0,2.23931 2.8367,4.38882 5.1636,3.91262 0.7421,-0.1519 1.484,0.1505 1.6486,0.6721 0.5748,1.8213 -5.4118,1.5972 -7.0977,-0.2657 z"
           id="path57" /><path
           style="fill:#ff0000;stroke-width:1.42229"
           d="m 598.94915,636.40402 c 0,-3.4767 0.4133,-6.16325 0.9481,-6.16325 0.5349,0 0.9482,2.68655 0.9482,6.16325 0,3.4767 -0.4133,6.16319 -0.9482,6.16319 -0.5348,0 -0.9481,-2.68649 -0.9481,-6.16319 z"
           id="path58" /><path
           style="fill:#ff0000;stroke-width:1.42229"
           d="m 561.02146,636.40402 c 0,-6.09493 0.0289,-6.16308 2.60752,-6.14872 4.26022,0.0238 5.33124,1.23417 4.67424,5.28272 -0.34248,2.11052 -0.14884,4.11341 0.46976,4.85879 0.57884,0.6974 0.74351,1.577 0.36594,1.9546 -0.37758,0.3775 -1.54068,-0.4861 -2.58468,-1.9193 -2.36031,-3.24021 -3.6364,-3.32279 -3.6364,-0.2353 0,1.3037 -0.42669,2.3704 -0.94819,2.3704 -0.53487,0 -0.94819,-2.68649 -0.94819,-6.16319 z"
           id="path59" /><path
           style="fill:#ff0000;stroke-width:1.42229"
           d="m 541.79415,641.85611 c -0.3188,-0.6039 -0.209,-8.71618 0.14759,-10.90419 0.17622,-1.08131 7.70143,-0.84969 7.70143,0.23705 0,0.52151 -1.28006,0.94819 -2.84457,0.94819 -1.89638,0 -2.84458,0.4741 -2.84458,1.42229 0,0.88498 0.89552,1.42229 2.37048,1.42229 1.30376,0 2.37047,0.42668 2.37047,0.94818 0,0.52151 -1.06671,0.94819 -2.37047,0.94819 -1.73834,0 -2.37048,0.50571 -2.37048,1.89638 0,1.47492 0.63214,1.89642 2.84458,1.89642 1.56451,0 2.84457,0.4267 2.84457,0.9481 0,1.0906 -7.28235,1.3105 -7.84902,0.2371 z"
           id="path60" /><path
           style="fill:#ff0000;stroke-width:1.42229"
           d="m 522.61973,641.61901 c -0.61268,-0.9913 -0.47526,-1.0456 3.23499,-1.2786 3.38174,-0.21239 3.4192,-2.08067 0.0696,-3.46816 -2.36271,-0.97866 -2.87463,-1.69246 -2.64327,-3.68555 0.23478,-2.02254 0.84706,-2.52583 3.36855,-2.76895 1.73098,-0.16689 3.08162,0.14479 3.08162,0.71114 0,0.55455 -1.06671,1.00827 -2.37048,1.00827 -3.07302,0 -3.12115,2.45058 -0.0632,3.21808 2.71291,0.6809 4.02385,3.87369 2.39591,5.83527 -1.29864,1.5647 -6.18836,1.861 -7.07367,0.4285 z"
           id="path61" /><path
           style="fill:#ff0000;stroke-width:1.42229"
           d="m 491.80353,636.40402 v -6.16325 h 3.24984 c 2.3815,0 3.77495,0.66755 5.21505,2.49836 1.08086,1.37409 1.96521,3.10023 1.96521,3.83587 0,2.42319 -4.49238,5.99221 -7.54243,5.99221 h -2.88767 z"
           id="path62" /><path
           style="fill:#ff0000;stroke-width:1.42229"
           d="m 472.59905,641.85611 c -0.19391,-0.3911 -0.30754,-3.05791 -0.25251,-5.92619 l 0.1,-5.21504 3.98932,-0.29157 c 2.35584,-0.17218 3.98933,0.11905 3.98933,0.71114 0,0.55149 -1.28006,1.00271 -2.84457,1.00271 -1.89639,0 -2.84457,0.4741 -2.84457,1.42229 0,0.88498 0.89551,1.42229 2.37046,1.42229 1.30377,0 2.37049,0.42668 2.37049,0.94818 0,0.52151 -1.06672,0.94819 -2.37049,0.94819 -1.73834,0 -2.37046,0.50571 -2.37046,1.89638 0,1.47492 0.63212,1.89642 2.84457,1.89642 1.56451,0 2.84457,0.4267 2.84457,0.9481 0,1.0903 -7.29367,1.3112 -7.82619,0.2371 z"
           id="path63" /><path
           style="fill:#ff0000;stroke-width:1.42229"
           d="m 456.72046,637.35221 c 0,-3.90855 -0.3423,-5.21505 -1.36633,-5.21505 -0.75148,0 -1.63003,-0.42668 -1.95233,-0.94819 -0.35795,-0.57917 1.09637,-0.9482 3.7368,-0.9482 2.37755,0 4.32281,0.42669 4.32281,0.9482 0,0.52151 -0.64003,0.94819 -1.42229,0.94819 -1.09184,0 -1.42228,1.21158 -1.42228,5.21505 0,2.8683 -0.42669,5.215 -0.94818,5.215 -0.52151,0 -0.9482,-2.3467 -0.9482,-5.215 z"
           id="path64" /><path
           style="fill:#ff0000;stroke-width:1.42229"
           d="m 440.60122,636.34806 c 0,-0.81304 -0.42669,-1.21454 -0.9482,-0.89223 -0.52151,0.3223 -0.94819,0.98752 -0.94819,1.47824 0,0.49073 0.42668,0.89224 0.94819,0.89224 0.52151,0 0.9482,-0.66522 0.9482,-1.47825 z"
           id="path65" /><path
           style="fill:#ff0000;stroke-width:1.42229"
           d="m 434.91207,641.73361 c 0,-0.4584 1.13936,-3.32226 2.53192,-6.36399 l 2.53191,-5.53043 1.82303,4.23061 c 3.22141,7.47571 3.53464,8.49741 2.60494,8.49741 -0.49024,0 -1.34807,-0.8533 -1.90627,-1.8963 -0.55821,-1.04305 -1.89322,-1.89642 -2.96671,-1.89642 -1.15435,0 -2.15441,0.77481 -2.4477,1.89642 -0.48805,1.8663 -2.17112,2.6902 -2.17112,1.0627 z"
           id="path66" /><path
           style="fill:#ff0000;stroke-width:1.42229"
           d="m 416.65939,642.02021 c -0.39113,-0.3945 -0.71114,-3.20621 -0.71114,-6.24832 v -5.53112 h 3.28531 c 3.95152,0 5.93826,2.62845 4.30022,5.68915 -0.72713,1.35864 -0.7148,2.45716 0.0434,3.87398 1.6295,3.04471 0.22939,3.36591 -2.04857,0.47001 -2.06838,-2.62952 -3.23879,-2.40972 -3.82904,0.7191 -0.181,0.9594 -0.6491,1.4216 -1.04023,1.0272 z"
           id="path67" /><path
           style="fill:#ff0000;stroke-width:1.42229"
           d="m 397.36343,641.86611 c -2.30307,-1.5919 -3.24876,-4.79829 -2.21619,-7.51415 0.5542,-1.45766 1.51431,-2.97246 2.13355,-3.36622 1.69908,-1.08037 7.50144,-0.90733 6.81507,0.20323 -0.3223,0.52151 -1.60335,0.94819 -2.84676,0.94819 -1.25549,0 -2.9115,0.92909 -3.72427,2.08946 -1.24506,1.77757 -1.27225,2.37907 -0.18215,4.0298 1.56306,2.36689 5.3309,3.17069 5.3309,1.13714 0,-0.77508 -0.53336,-1.62444 -1.18524,-1.88748 -0.65189,-0.26303 -0.19685,-0.51194 1.01118,-0.55311 1.85061,-0.063 2.14917,0.33567 1.89638,2.53267 -0.24511,2.13007 -0.82086,2.65277 -3.14461,2.85457 -1.56451,0.1358 -3.31405,-0.077 -3.88786,-0.4741 z"
           id="path68" /><path
           style="fill:#ff0000;stroke-width:1.42229"
           d="m 376.12423,636.40402 v -6.16325 h 4.26686 c 2.34677,0 4.26686,0.42669 4.26686,0.9482 0,0.52151 -1.49341,0.94819 -3.31867,0.94819 -2.3178,0 -3.31866,0.42894 -3.31866,1.42229 0,0.94818 0.94818,1.42229 2.84457,1.42229 3.56168,0 3.75881,1.66488 0.24515,2.07045 -1.56779,0.18094 -2.72431,0.95856 -2.9141,1.95935 -0.25211,1.32947 0.35892,1.65937 3.07352,1.65937 1.86351,0 3.38819,0.4267 3.38819,0.9481 0,0.5216 -1.92009,0.9482 -4.26686,0.9482 h -4.26686 z"
           id="path69" /><path
           style="fill:#ff0000;stroke-width:1.42229"
           d="m 360.00499,637.35221 c 0,-4.00347 -0.33043,-5.21505 -1.42229,-5.21505 -0.78226,0 -1.42229,-0.42668 -1.42229,-0.94819 0,-0.52151 1.92009,-0.9482 4.26686,-0.9482 2.34678,0 4.26686,0.42669 4.26686,0.9482 0,0.52151 -0.85337,0.94819 -1.89638,0.94819 -1.66652,0 -1.89639,0.63213 -1.89639,5.21505 0,2.8683 -0.42668,5.215 -0.94818,5.215 -0.52151,0 -0.94819,-2.3467 -0.94819,-5.215 z"
           id="path70" /><path
           style="fill:#ff0000;stroke-width:1.42229"
           d="m 335.35203,636.2066 v -6.36067 l 4.26686,4.18761 4.26686,4.18761 v -3.99018 c 0,-2.1946 0.42668,-3.9902 0.94819,-3.9902 0.5379,0 0.94818,2.75236 0.94818,6.36067 v 6.36067 l -4.26686,-4.18762 c -2.34677,-2.30318 -4.31008,-3.77874 -4.36292,-3.27904 -0.0528,0.49971 -0.0202,2.2953 0.0727,3.99019 0.0927,1.69487 -0.29067,3.08157 -0.85213,3.08157 -0.62754,0 -1.02083,-2.45052 -1.02083,-6.36061 z"
           id="path71" /><path
           style="fill:#ff0000;stroke-width:1.42229"
           d="m 321.76128,641.93511 c -0.34766,-0.3477 -0.63212,-3.12111 -0.63212,-6.16322 0,-4.28441 0.32059,-5.53112 1.42229,-5.53112 1.11837,0 1.42229,1.31694 1.42229,6.16325 0,5.68429 -0.58836,7.15519 -2.21246,5.53109 z"
           id="path72" /><path
           style="fill:#f9f9f9;stroke-width:1.42229"
           d="m 498.25122,639.53305 c 1.87353,-1.87353 1.40056,-6.23652 -0.75007,-6.91911 -2.83979,-0.90131 -3.80124,0.19139 -3.80124,4.32013 0,2.96628 0.35193,3.73684 1.70674,3.73684 0.93871,0 2.21877,-0.51205 2.84457,-1.13786 z"
           id="path73" /><path
           style="fill:#f9f9f9;stroke-width:1.42229"
           d="m 421.88813,635.36312 c 0.90487,-0.90487 -0.33159,-3.22596 -1.71851,-3.22596 -1.58838,0 -2.62464,1.59261 -1.85089,2.84458 0.64762,1.04787 2.6852,1.26558 3.5694,0.38138 z"
           id="path74" /><path
           style="fill:#f9f9f9;stroke-width:1.42229"
           d="m 331.97164,584.75108 c 1.84379,-0.70101 2.43219,-1.59402 2.43219,-3.69132 0,-3.15576 -1.30593,-3.91767 -6.71488,-3.91767 -3.67538,0 -3.71521,0.039 -3.71521,3.63473 0,1.9991 0.28445,3.91919 0.63212,4.26686 0.91881,0.9188 4.55999,0.77415 7.36578,-0.2926 z"
           id="path75" /><path
           style="fill:#f9f9f9;stroke-width:1.42229"
           d="m 335.42478,600.76161 c 1.26892,-2.0045 1.04632,-5.22987 -0.44646,-6.46877 -0.72704,-0.60339 -3.5005,-1.3551 -6.16324,-1.67046 l -4.84134,-0.57338 v 5.46454 5.46453 l 5.30231,-0.43971 c 3.11515,-0.25833 5.65147,-0.99123 6.14873,-1.77675 z"
           id="path76" /><path
           style="fill:#f9f9f9;stroke-width:1.42229"
           d="m 719.43165,639.68932 c 3.3997,-1.81944 1.7689,-7.55216 -2.1483,-7.55216 -1.3907,0 -1.7068,0.79016 -1.7068,4.26686 0,4.40579 0.6795,4.98489 3.8551,3.2853 z"
           id="path77" /><path
           style="fill:#f9f9f9;stroke-width:1.42229"
           d="m 566.7106,634.03354 c 0,-1.26425 -0.63212,-1.89638 -1.89637,-1.89638 -1.26426,0 -1.89639,0.63213 -1.89639,1.89638 0,1.26426 0.63213,1.89638 1.89639,1.89638 1.26425,0 1.89637,-0.63212 1.89637,-1.89638 z"
           id="path78" /></g></g></g></svg>
